<svg id="Capa_1" data-name="Capa 1" xmlns="http://www.w3.org/2000/svg" xmlns:xlink="http://www.w3.org/1999/xlink" viewBox="0 0 897.69 372.93"><defs><style>.cls-1{fill:#231f20;}.cls-2{fill:#0c9;}.cls-3{fill:url(#Degradado_sin_nombre_25);}.cls-11,.cls-4,.cls-5{fill:#fff;}.cls-5{font-size:27.67px;font-family:BebasNeue-Regular, Bebas Neue;letter-spacing:0.2em;}.cls-6{letter-spacing:0.2em;}.cls-7{letter-spacing:0.2em;}.cls-8{letter-spacing:0.15em;}.cls-9{letter-spacing:0.2em;}.cls-10{letter-spacing:0.2em;}.cls-11{font-size:80.13px;font-family:OstrichSans-Bold, Ostrich Sans;font-weight:700;}.cls-12{letter-spacing:-0.02em;}</style><linearGradient id="Degradado_sin_nombre_25" x1="94.44" y1="188.88" x2="397.39" y2="188.88" gradientUnits="userSpaceOnUse"><stop offset="0" stop-color="#fff"/><stop offset="0" stop-color="#24d3a8"/><stop offset="0" stop-color="#1ad1a4"/><stop offset="0.09" stop-color="#21d2a7"/><stop offset="0.3" stop-color="#09ce9d"/><stop offset="0.9" stop-color="#01cc99"/><stop offset="1" stop-color="#0c9"/></linearGradient></defs><rect class="cls-1" width="897.69" height="372.93"/><path class="cls-2" d="M94.44,170.62c3.17-.73,5-1.25,6.87-1.57,12.87-2.17,26-7,38.57-5.93,33.73,3,74.39,24.25,85.8,73.6,3.38,14.63,5.82,29.57,10.32,43.84,7.79,24.66,24.91,32.29,48.32,23.2,4.54-1.76,9.82-3.95,14.19-3.06s8.1,5.39,12.11,8.31l1.37-.49-8.31-14.33c2.79.57,5.58.62,7.85,1.75s4.2,3.41,7.24,6c-2.64-10.53-10.68-16.12-19.08-13.54a89.45,89.45,0,0,0-17.44,8.08c-10.75,6.1-13.15,5.07-13.82-6.77-14.83-3.77-18.9-9.62-14.62-24.85a151.07,151.07,0,0,1,12.56-30.38c11.66-21.6,13.09-43,.83-66,18.06,8.33,31.86,1,45.11-9.46,6-4.75,12.16-9.63,18.91-13.15,9.92-5.19,19.73,1,20.87,12.25,1.61,15.93-8.88,29.59-25.26,32.87-3.1.62-6.24,1.09-9.36,1.62l.13,1.07,13.5,2.8-14,7.4c25.82,3.48,44.06-7.39,51.34-31.8,4.3-14.43,9.68-27,23.49-34.66,6.43-3.58,6.62-10.07,3.29-16.5-7.1-13.73-16.94-24.77-31-31.24-12.6-5.79-25.59-10.7-38.06-16.74-11.36-5.51-22.26-5.46-33.56-.33a34.84,34.84,0,0,1-23.84,2.23c-19.11-4.87-38.37-6.81-58-2.39-51.55,11.58-87.78,43-112.85,89C96.55,163.94,95.86,166.8,94.44,170.62Zm102.54,41c-21.57-33.59-58.09-45-95.59-31-7.84,2.92-12.74,7.9-15.46,15.89-7.79,22.84-10.71,46.37-10.47,70.41,0,4.33,0,8.65,0,13l1.74.57c19.25-39.79,45.44-68.49,94.5-61.35-17-16.65-36.63-22.63-59.81-18.52,5.26-3.41,10.59-6.27,16.28-7.6C154.17,186.94,176.07,197.22,197,211.63Z" transform="translate(-0.31 -0.07)"/><path class="cls-3" d="M94.44,170.62c1.42-3.82,2.11-6.68,3.47-9.18,25.07-46,61.3-77.44,112.85-89,19.64-4.42,38.9-2.48,58,2.39a34.84,34.84,0,0,0,23.84-2.23c11.3-5.13,22.2-5.18,33.56.33,12.47,6,25.46,11,38.06,16.74,14.08,6.47,23.92,17.51,31,31.24,3.33,6.43,3.14,12.92-3.29,16.5-13.81,7.68-19.19,20.23-23.49,34.66-7.28,24.41-25.52,35.28-51.34,31.8l14-7.4-13.5-2.8-.13-1.07c3.12-.53,6.26-1,9.36-1.62,16.38-3.28,26.87-16.94,25.26-32.87-1.14-11.27-10.95-17.44-20.87-12.25-6.75,3.52-12.88,8.4-18.91,13.15-13.25,10.43-27.05,17.79-45.11,9.46,12.26,23,10.83,44.44-.83,66a151.07,151.07,0,0,0-12.56,30.38c-4.28,15.23-.21,21.08,14.62,24.85.67,11.84,3.07,12.87,13.82,6.77a89.45,89.45,0,0,1,17.44-8.08c8.4-2.58,16.44,3,19.08,13.54-3-2.6-4.89-4.82-7.24-6s-5.06-1.18-7.85-1.75L312,308.52l-1.37.49c-4-2.92-7.7-7.41-12.11-8.31s-9.65,1.3-14.19,3.06c-23.41,9.09-40.53,1.46-48.32-23.2-4.5-14.27-6.94-29.21-10.32-43.84-11.41-49.35-52.07-70.64-85.8-73.6-12.6-1.1-25.7,3.76-38.57,5.93C99.45,169.37,97.61,169.89,94.44,170.62Zm221.31-54.73c4.58,4.79,8.81,2.22,11.82-1.5,4.7-5.82-1.07-8.88-2.72-11.47-3.15,4.43-6.21,8.76-9.27,13.08.75-7.12,1.74-14.24,2.1-21.38.08-1.64-2.18-4.91-3-4.8-2.34.3-5.45,1.41-6.58,3.25C303.94,99.83,308.39,112.33,315.75,115.89ZM307.09,140c3,1.49,17.81-3.12,18.79-5.95a8.63,8.63,0,0,0,.24-3c-.18-7.55-1.63-8.55-12-9.2-2.54,6.42-4.9,12.38-7.25,18.35.9-4.82,1.8-9.65,2.93-15.68-6.45,3.55-11.33,7.11-16.77,9-5.72,2-12,2.36-18,3.44,2,10,6.19,15.15,12.57,14.31C295.41,150.23,303,148.09,307.09,140Zm-87,65.53c2.53-7.61,5.25-15.52,7.73-23.51a5.77,5.77,0,0,0-.69-4.07c-11.3-19.21-27-32.52-49.22-36.34C164.2,139.23,142,146,134.81,154.21,174.34,153.53,201,174.68,220.05,205.5ZM211,83.83c-36.29,6-63.15,26.8-84.93,57.36,26-8.15,50.77-10.62,75.9,3C185.36,119.67,179.86,103.61,211,83.83Zm18.36-.46c-3,.68-5.48.87-7.65,1.78-13.23,5.6-23.05,21-20,35.1,2.39,11,7.18,21.66,12.29,31.75,4.84,9.55,11.49,18.15,17.34,27.18,1.55-10.19,1.19-19.9,10.21-26.18-5-6.05-9.45-11.72-14.15-17.19-15.71-18.29-16.39-35.35,1.25-50.27C228.78,85.41,228.78,85.1,229.33,83.37Zm49.83-.26.39,3.36c6.49,0,13.28,1.26,19.41-.26,12.38-3.06,20.14,1.64,27.62,11.26,4.28,5.51,11.17,10.77,17.73,12.24,12,2.7,24.64,2.51,36.52,3.48-7.32-11.34-30.38-25.61-46.75-27.57,4.8,4.46,8.5,7.9,12.21,11.33l-1,1.55c-3.57-2.19-7.55-3.92-10.63-6.67-4.25-3.79-7.36-9-11.85-12.38-3.51-2.65-8.71-5.36-12.59-4.69C299.69,76.59,289.48,80.2,279.16,83.11Zm30.08,37.76c-6.39-5-12.08-9.57-17.9-14a6.1,6.1,0,0,0-3.9-1.27c-8.5,1-17,2.21-26.06,3.44,0,3.58-.57,7.37.13,10.9,1.18,6,3.05,12.27,10.55,12.48C285.88,132.84,298.74,129.66,309.24,120.87Zm-18.89-27.5-28-10.29c-3.24-1.19-6.39-2.92-9.73-3.48-5-.84-11-2.32-13.3,4.41-2.08,6.12,1.93,10.17,6.69,12.77,13.59,7.4,27.9,9.3,42.93,4.89C289.5,98.28,290.05,95.12,290.35,93.37ZM242.2,211.06c3.35-3.68,7.47-8.12,11.47-12.68a6.32,6.32,0,0,0,1.41-3.35c1.12-12.34-2.19-23.76-7.78-34.49-.55-1.07-5.52-1.44-6.1-.55-5.16,7.83-8.49,16.45-6.19,26C237.08,194.61,239.86,203,242.2,211.06ZM235.48,84.73c-10.28,14.66-.25,37.62,25,44.56-.87-6.86-1.75-13.85-2.68-21.23C248.3,103.37,235.79,100.83,235.48,84.73Zm2.46,163.45c7.6-1.79,13.67-4.45,14.51-13.88.66-7.45,2.7-14.76,3.78-22.18.4-2.78-.17-5.7-.3-8.75C242.36,206.9,236.41,227.41,237.94,248.18Zm7.59-120.43c-1.73,19.21,10,28.14,31.18,22.89-2.22-5-3.11-11.95-6.77-14.14C262.77,132.22,254.05,130.61,245.53,127.75Zm127.64,16.37,15.76-16.86c-4.37-7.34-12.54-9.41-19.06-10.72L359.12,135.9ZM233.7,244.81c1.87-19.53,6.16-39.21-3.08-59.42C218.39,206.92,228.47,225.72,233.7,244.81Zm9.86-104.1c-1.61-6.94,3.19-14-3.71-18.86-9-6.38-14.61-14.5-12.85-26.49C213.2,102.11,223.54,130.55,243.56,140.71Zm7.72,19.15c15.41,27.33,9.64,53.61,3.62,81.53C270.9,215.23,274.24,175.76,251.28,159.86Zm1.3-6.19c19.23,17.2,46.53,12.45,66.86-10.54C297.49,157,275.73,160.25,252.58,153.67Zm73.55-31.06c1.4,3.72,3.11,8.28,5,13.4,8.59-2.28,18.5.69,25.57-5.94L332.36,114.7ZM247.5,294V247.13c-5.91,1.28-9.32,5.84-10,11.27C236.05,271.09,239.54,282.67,247.5,294Zm85-94.36c12.36-3.61,22-10.35,27.42-22.72,3.19-7.26,1.78-13.11-4.2-19.58C354.5,175.89,346.75,189.64,332.54,199.66Zm20.22-59.24-.65,2.48c4.16,6.31,8.32,12.63,12.72,19.29l7.27-15.58Zm-6.17-23c-.34.7-.69,1.4-1,2.1,3.43,2,6.77,4.21,10.35,5.85,1.22.56,4.08.15,4.45-.65a13.51,13.51,0,0,0,1.2-7.07c-.11-.83-3.11-1.86-4.74-1.78A89.79,89.79,0,0,0,346.59,117.41ZM306.83,90.28c-10-1-11.94.79-11.13,9.61C303.46,101.9,302.46,93.91,306.83,90.28ZM263,296.18l-.67-1.82-13.49-7c2.3,4.62,3.08,8.7,5.42,10.11C256.23,298.64,260,296.72,263,296.18ZM298.16,102.1l-1.83,2.12,8.71,8.44C302,112,306.62,101.14,298.16,102.1Z" transform="translate(-0.31 -0.07)"/><path class="cls-2" d="M197,211.63c-20.91-14.41-42.81-24.69-68.81-18.64-5.69,1.33-11,4.19-16.28,7.6,23.18-4.11,42.78,1.87,59.81,18.52-49.06-7.14-75.25,21.56-94.5,61.35l-1.74-.57c0-4.33,0-8.65,0-13-.24-24,2.68-47.57,10.47-70.41,2.72-8,7.62-13,15.46-15.89C138.89,166.58,175.41,178,197,211.63Z" transform="translate(-0.31 -0.07)"/><path class="cls-1" d="M220.05,205.5c-19.06-30.82-45.71-52-85.24-51.29,7.14-8.25,29.39-15,43.06-12.63,22.24,3.82,37.92,17.13,49.22,36.34a5.77,5.77,0,0,1,.69,4.07C225.3,190,222.58,197.89,220.05,205.5Z" transform="translate(-0.31 -0.07)"/><path class="cls-1" d="M211,83.83c-31.11,19.78-25.61,35.84-9,60.39-25.13-13.65-49.94-11.18-75.9-3C147.82,110.63,174.68,89.83,211,83.83Z" transform="translate(-0.31 -0.07)"/><path class="cls-1" d="M229.33,83.37c-.55,1.73-.55,2-.71,2.17-17.64,14.92-17,32-1.25,50.27,4.7,5.47,9.18,11.14,14.15,17.19-9,6.28-8.66,16-10.21,26.18-5.85-9-12.5-17.63-17.34-27.18-5.11-10.09-9.9-20.76-12.29-31.75-3.05-14,6.77-29.5,20-35.1C223.85,84.24,226.32,84.05,229.33,83.37Z" transform="translate(-0.31 -0.07)"/><path class="cls-1" d="M279.16,83.11c10.32-2.91,20.53-6.52,31-8.35,3.88-.67,9.08,2,12.59,4.69,4.49,3.38,7.6,8.59,11.85,12.38,3.08,2.75,7.06,4.48,10.63,6.67l1-1.55c-3.71-3.43-7.41-6.87-12.21-11.33,16.37,2,39.43,16.23,46.75,27.57-11.88-1-24.51-.78-36.52-3.48-6.56-1.47-13.45-6.73-17.73-12.24C319.1,87.85,311.34,83.15,299,86.21c-6.13,1.52-12.92.26-19.41.26Z" transform="translate(-0.31 -0.07)"/><path class="cls-1" d="M309.24,120.87c-10.5,8.79-23.36,12-37.18,11.59-7.5-.21-9.37-6.53-10.55-12.48-.7-3.53-.13-7.32-.13-10.9,9.09-1.23,17.56-2.45,26.06-3.44a6.1,6.1,0,0,1,3.9,1.27C297.16,111.3,302.85,115.86,309.24,120.87Z" transform="translate(-0.31 -0.07)"/><path class="cls-1" d="M290.35,93.37c-.3,1.75-.85,4.91-1.43,8.3-15,4.41-29.34,2.51-42.93-4.89-4.76-2.6-8.77-6.65-6.69-12.77,2.3-6.73,8.29-5.25,13.3-4.41,3.34.56,6.49,2.29,9.73,3.48Z" transform="translate(-0.31 -0.07)"/><path class="cls-1" d="M242.2,211.06c-2.34-8.05-5.12-16.45-7.19-25-2.3-9.59,1-18.21,6.19-26,.58-.89,5.55-.52,6.1.55,5.59,10.73,8.9,22.15,7.78,34.49a6.32,6.32,0,0,1-1.41,3.35C249.67,202.94,245.55,207.38,242.2,211.06Z" transform="translate(-0.31 -0.07)"/><path class="cls-1" d="M235.48,84.73c.31,16.1,12.82,18.64,22.36,23.33.93,7.38,1.81,14.37,2.68,21.23C235.23,122.35,225.2,99.39,235.48,84.73Z" transform="translate(-0.31 -0.07)"/><path class="cls-1" d="M237.94,248.18c-1.53-20.77,4.42-41.28,18-44.81.13,3,.7,6,.3,8.75-1.08,7.42-3.12,14.73-3.78,22.18C251.61,243.73,245.54,246.39,237.94,248.18Z" transform="translate(-0.31 -0.07)"/><path class="cls-1" d="M307.05,140c-4,8.08-11.64,10.22-19.46,11.25-6.38.84-10.6-4.34-12.57-14.31,6-1.08,12.29-1.46,18-3.44,5.44-1.88,10.32-5.44,16.77-9-1.13,6-2,10.86-2.93,15.68Z" transform="translate(-0.31 -0.07)"/><path class="cls-1" d="M245.53,127.75c8.52,2.86,17.24,4.47,24.41,8.75,3.66,2.19,4.55,9.16,6.77,14.14C255.57,155.89,243.8,147,245.53,127.75Z" transform="translate(-0.31 -0.07)"/><path class="cls-1" d="M373.17,144.12l-14.05-8.22,10.75-19.36c6.52,1.31,14.69,3.38,19.06,10.72Z" transform="translate(-0.31 -0.07)"/><path class="cls-1" d="M233.7,244.81c-5.23-19.09-15.31-37.89-3.08-59.42C239.86,205.6,235.57,225.28,233.7,244.81Z" transform="translate(-0.31 -0.07)"/><path class="cls-1" d="M243.56,140.71c-20-10.16-30.36-38.6-16.56-45.35-1.76,12,3.85,20.11,12.85,26.49C246.75,126.74,242,133.77,243.56,140.71Z" transform="translate(-0.31 -0.07)"/><path class="cls-1" d="M251.28,159.86c23,15.9,19.62,55.37,3.62,81.53C260.92,213.47,266.69,187.19,251.28,159.86Z" transform="translate(-0.31 -0.07)"/><path class="cls-1" d="M252.58,153.67c23.15,6.58,44.91,3.35,66.86-10.54C299.11,166.12,271.81,170.87,252.58,153.67Z" transform="translate(-0.31 -0.07)"/><path class="cls-1" d="M326.13,122.61l6.23-7.91,24.38,15.37c-7.07,6.63-17,3.66-25.57,5.94C329.24,130.89,327.53,126.33,326.13,122.61Z" transform="translate(-0.31 -0.07)"/><path class="cls-1" d="M247.5,294c-8-11.35-11.45-22.93-10-35.62.64-5.43,4.05-10,10-11.27Z" transform="translate(-0.31 -0.07)"/><path class="cls-1" d="M332.54,199.66c14.21-10,22-23.77,23.22-42.3,6,6.47,7.39,12.32,4.2,19.58C354.54,189.31,344.9,196.05,332.54,199.66Z" transform="translate(-0.31 -0.07)"/><path class="cls-1" d="M306.87,140.2c2.35-6,4.71-11.93,7.25-18.35,10.37.65,11.82,1.65,12,9.2a8.63,8.63,0,0,1-.24,3c-1,2.83-15.76,7.44-18.81,6Z" transform="translate(-0.31 -0.07)"/><path class="cls-4" d="M315.7,115.92c-7.31-3.59-11.76-16.09-7.63-22.85,1.13-1.84,4.24-2.95,6.58-3.25.85-.11,3.11,3.16,3,4.8-.36,7.14-1.35,14.26-2.1,21.38Z" transform="translate(-0.31 -0.07)"/><path class="cls-1" d="M352.76,140.42l19.34,6.19-7.27,15.58c-4.4-6.66-8.56-13-12.72-19.29Z" transform="translate(-0.31 -0.07)"/><path class="cls-1" d="M346.59,117.41a89.79,89.79,0,0,1,10.22-1.55c1.63-.08,4.63,1,4.74,1.78a13.51,13.51,0,0,1-1.2,7.07c-.37.8-3.23,1.21-4.45.65-3.58-1.64-6.92-3.86-10.35-5.85C345.9,118.81,346.25,118.11,346.59,117.41Z" transform="translate(-0.31 -0.07)"/><path class="cls-4" d="M315.58,116c3.06-4.32,6.12-8.65,9.27-13.08,1.65,2.59,7.42,5.65,2.72,11.47-3,3.72-7.24,6.29-11.84,1.52Z" transform="translate(-0.31 -0.07)"/><path class="cls-1" d="M306.83,90.28c-4.37,3.63-3.37,11.62-11.13,9.61C294.89,91.07,296.82,89.23,306.83,90.28Z" transform="translate(-0.31 -0.07)"/><path class="cls-1" d="M263,296.18c-3,.54-6.77,2.46-8.74,1.27-2.34-1.41-3.12-5.49-5.42-10.11l13.49,7Z" transform="translate(-0.31 -0.07)"/><path class="cls-1" d="M298.16,102.1c8.46-1,3.87,9.85,6.88,10.56l-8.71-8.44Z" transform="translate(-0.31 -0.07)"/><text class="cls-5" transform="translate(386.09 232.75) scale(0.91 1)">B<tspan class="cls-6" x="16.71" y="0">l</tspan><tspan class="cls-7" x="31.66" y="0">og orien</tspan><tspan class="cls-8" x="151.65" y="0">t</tspan><tspan class="cls-7" x="165.98" y="0">ado a </tspan><tspan class="cls-9" x="252.54" y="0">l</tspan><tspan class="cls-7" x="267.71" y="0">a program</tspan><tspan class="cls-10" x="413.91" y="0">a</tspan><tspan class="cls-7" x="430.48" y="0">ción</tspan></text><text class="cls-11" transform="translate(272.1 187.91) scale(0.91 1)"><tspan xml:space="preserve">             DeVIN</tspan><tspan class="cls-12" x="409.47" y="0">F</tspan><tspan x="436.47" y="0">O</tspan></text></svg>