<svg xmlns="http://www.w3.org/2000/svg" xmlns:xlink="http://www.w3.org/1999/xlink" viewBox="0 0 1003.45 337.54"><defs><style>.cls-1{fill:#0c9;}.cls-2{fill:url(#Degradado_sin_nombre_25);}.cls-3,.cls-4{fill:#fff;}.cls-4{font-size:105.08px;font-family:OstrichSans-Bold, Ostrich Sans;font-weight:700;}.cls-5,.cls-6,.cls-7,.cls-8{fill:#070707;}.cls-5{letter-spacing:0em;}.cls-6{letter-spacing:-0.02em;}.cls-8{font-size:38.88px;font-family:BebasNeue-Regular, Bebas Neue;letter-spacing:0.2em;}.cls-9{letter-spacing:0.2em;}.cls-10{letter-spacing:0.2em;}.cls-11{letter-spacing:0.15em;}.cls-12{letter-spacing:0.2em;}.cls-13{letter-spacing:0.2em;}</style><linearGradient id="Degradado_sin_nombre_25" x1="613.61" y1="241.88" x2="1022" y2="241.88" gradientUnits="userSpaceOnUse"><stop offset="0" stop-color="#fff"/><stop offset="0" stop-color="#24d3a8"/><stop offset="0" stop-color="#1ad1a4"/><stop offset="0.09" stop-color="#21d2a7"/><stop offset="0.3" stop-color="#09ce9d"/><stop offset="0.9" stop-color="#01cc99"/><stop offset="1" stop-color="#0c9"/></linearGradient></defs><g id="DESIGNED_BY_FREEPIK" data-name="DESIGNED BY FREEPIK"><path class="cls-1" d="M613.61,216.23c4.28-1,6.75-1.76,9.26-2.21,17.35-3.05,35-9.88,52-8.33,45.48,4.16,100.29,34.07,115.66,103.4,4.56,20.56,7.85,41.55,13.93,61.6,10.49,34.65,33.58,45.36,65.14,32.59,6.11-2.47,13.24-5.55,19.12-4.3s10.92,7.57,16.32,11.67l1.85-.69-11.2-20.12c3.77.8,7.53.87,10.58,2.46s5.67,4.79,9.76,8.44c-3.56-14.8-14.39-22.66-25.72-19-8.18,2.63-16,6.92-23.51,11.36-14.49,8.57-17.73,7.12-18.63-9.51-20-5.3-25.48-13.52-19.7-34.91A216.43,216.43,0,0,1,845.38,306c15.72-30.35,17.64-60.46,1.12-92.78,24.35,11.71,43,1.36,60.81-13.29,8.14-6.68,16.4-13.54,25.49-18.49,13.38-7.28,26.61,1.39,28.14,17.22,2.17,22.38-12,41.57-34.05,46.18-4.19.87-8.41,1.53-12.62,2.28l.18,1.5,18.2,3.93-18.84,10.4c34.81,4.9,59.4-10.38,69.21-44.67,5.8-20.28,13.05-37.91,31.67-48.71,8.66-5,8.93-14.14,4.44-23.18-9.59-19.28-22.84-34.8-41.83-43.89-17-8.13-34.5-15-51.31-23.52-15.3-7.73-30-7.66-45.23-.46a45.24,45.24,0,0,1-32.14,3.13c-25.76-6.84-51.73-9.56-78.2-3.36-69.5,16.28-118.34,60.39-152.13,125.08C616.46,206.83,615.53,210.86,613.61,216.23Zm138.23,57.61c-29.08-47.18-78.3-63.28-128.87-43.59-10.56,4.12-17.16,11.11-20.83,22.34-10.5,32.09-14.44,65.14-14.12,98.92.06,6.08,0,12.16,0,18.23l2.34.81c26-55.91,61.26-96.23,127.39-86.2-23-23.39-49.38-31.79-80.63-26,7.09-4.8,14.28-8.82,22-10.68C694.13,239.15,723.66,253.6,751.84,273.84Z" transform="translate(-588 -73.11)"/><path class="cls-2" d="M613.61,216.23c1.92-5.37,2.85-9.4,4.68-12.9,33.79-64.69,82.63-108.8,152.13-125.08,26.47-6.2,52.44-3.48,78.2,3.36a45.24,45.24,0,0,0,32.14-3.13c15.22-7.2,29.93-7.27,45.23.46,16.81,8.49,34.33,15.39,51.31,23.52,19,9.09,32.24,24.61,41.83,43.89,4.49,9,4.22,18.16-4.44,23.18C996.07,180.33,988.82,198,983,218.24c-9.81,34.29-34.4,49.57-69.21,44.67l18.84-10.4-18.2-3.93-.18-1.5c4.21-.75,8.43-1.41,12.62-2.28,22.09-4.61,36.22-23.8,34.05-46.18-1.53-15.83-14.76-24.5-28.14-17.22-9.09,4.95-17.35,11.81-25.49,18.49-17.86,14.65-36.46,25-60.81,13.29C863,245.5,861.1,275.61,845.38,306a216.43,216.43,0,0,0-16.92,42.69c-5.78,21.39-.3,29.61,19.7,34.91.9,16.63,4.14,18.08,18.63,9.51,7.51-4.44,15.33-8.73,23.51-11.36,11.33-3.63,22.16,4.23,25.72,19-4.09-3.65-6.58-6.78-9.76-8.44s-6.81-1.66-10.58-2.46L906.88,410l-1.85.69c-5.4-4.1-10.38-10.4-16.32-11.67s-13,1.83-19.12,4.3c-31.56,12.77-54.65,2.06-65.14-32.59-6.08-20.05-9.37-41-13.93-61.6-15.37-69.33-70.18-99.24-115.66-103.4-17-1.55-34.64,5.28-52,8.33C620.36,214.47,617.89,215.2,613.61,216.23ZM912,139.33c6.17,6.73,11.88,3.13,15.93-2.1,6.34-8.19-1.44-12.48-3.66-16.13l-12.5,18.38c1-10,2.34-20,2.83-30,.11-2.31-2.94-6.9-4.08-6.75-3.16.43-7.35,2-8.88,4.57C896,116.76,902,134.33,912,139.33Zm-11.68,33.84c4.09,2.09,24-4.4,25.34-8.37a12.49,12.49,0,0,0,.31-4.16c-.23-10.62-2.19-12-16.17-12.93L900,173.49c1.22-6.78,2.44-13.56,4-22-8.69,5-15.27,10-22.6,12.64-7.72,2.78-16.16,3.32-24.29,4.83,2.66,14,8.35,21.28,17,20.1C884.53,187.58,894.78,184.58,900.27,173.17ZM782.94,265.24c3.42-10.7,7.08-21.82,10.42-33.05a8.36,8.36,0,0,0-.93-5.71c-15.24-27-36.36-45.69-66.35-51.06-18.44-3.29-48.43,6.17-58.05,17.75C721.32,192.22,757.24,221.92,782.94,265.24ZM770.7,94.29c-48.93,8.43-85.13,37.65-114.49,80.58,35-11.44,68.44-14.91,102.32,4.27C736.17,144.65,728.77,122.08,770.7,94.29Zm24.75-.64c-4.06.95-7.38,1.21-10.31,2.5-17.83,7.86-31.07,29.57-27,49.31,3.22,15.43,9.68,30.43,16.57,44.6,6.52,13.42,15.48,25.51,23.37,38.19,2.08-14.31,1.61-28,13.77-36.78-6.71-8.5-12.75-16.47-19.08-24.15-21.18-25.7-22.1-49.67,1.69-70.62C794.71,96.51,794.71,96.07,795.45,93.65Zm67.17-.37.53,4.72c8.75,0,17.91,1.76,26.17-.37,16.68-4.3,27.15,2.3,37.23,15.82,5.78,7.75,15.05,15.13,23.9,17.2,16.19,3.79,33.22,3.53,49.23,4.89-9.86-15.93-40.95-36-63-38.74l16.46,15.93-1.37,2.16c-4.82-3.07-10.18-5.5-14.34-9.37-5.73-5.32-9.92-12.64-16-17.39-4.74-3.72-11.74-7.53-17-6.58C890.3,84.11,876.54,89.19,862.62,93.28Zm40.55,53.05c-8.6-7-16.28-13.44-24.12-19.61a8,8,0,0,0-5.27-1.79c-11.45,1.4-22.87,3.11-35.12,4.83,0,5-.78,10.36.17,15.32,1.6,8.35,4.11,17.24,14.22,17.53C871.68,163.15,889,158.68,903.17,146.33Zm-25.46-38.64L839.94,93.24c-4.37-1.68-8.61-4.11-13.12-4.89-6.75-1.19-14.83-3.26-17.92,6.19-2.82,8.6,2.6,14.3,9,17.94,18.32,10.4,37.61,13.08,57.87,6.87ZM812.79,273c4.52-5.17,10.09-11.4,15.47-17.81a9,9,0,0,0,1.9-4.71c1.52-17.34-2.95-33.38-10.48-48.46-.75-1.5-7.44-2-8.23-.76-7,11-11.45,23.1-8.34,36.57C805.9,249.92,809.64,261.73,812.79,273Zm-9-177.49c-13.86,20.61-.34,52.86,33.76,62.61-1.17-9.64-2.36-19.46-3.62-29.83C821,121.75,804.16,118.17,803.74,95.55Zm3.31,229.64c10.26-2.5,18.44-6.25,19.57-19.5.88-10.46,3.63-20.74,5.09-31.17.54-3.9-.22-8-.4-12.28C813,267.2,805,296,807.05,325.19ZM817.29,156c-2.34,27,13.53,39.54,42,32.17-3-7-4.19-16.8-9.13-19.87C840.53,162.28,828.78,160,817.29,156Zm172.06,23,21.25-23.68c-5.89-10.31-16.91-13.23-25.69-15.07l-14.49,27.2Zm-188,141.47c2.52-27.44,8.3-55.09-4.15-83.48C780.71,267.22,794.3,293.63,801.35,320.46ZM814.63,174.2c-2.17-9.75,4.3-19.63-5-26.5-12.14-9-19.69-20.36-17.32-37.21C773.71,120,787.64,159.92,814.63,174.2ZM825,201.11c20.77,38.4,13,75.32,4.88,114.55C851.49,278.9,856,223.44,825,201.11Zm1.75-8.7c25.92,24.17,62.73,17.49,90.13-14.81C887.33,197.12,858,201.65,826.79,192.41ZM926,148.77l6.78,18.83c11.58-3.2,24.94,1,34.47-8.34l-32.86-21.6C932.27,140.39,929.4,144.2,926,148.77Zm-106,240.83V323.71c-8,1.81-12.56,8.21-13.42,15.84C804.51,357.37,809.21,373.66,819.94,389.6ZM934.58,257c16.67-5.07,29.66-14.53,37-31.91,4.29-10.21,2.39-18.43-5.66-27.52C964.18,223.63,953.74,242.94,934.58,257Zm27.26-83.23c-.29,1.16-.59,2.32-.88,3.49l17.15,27.1c3.15-7,6.19-13.82,9.81-21.89Zm-8.31-32.32-1.41,2.95c4.63,2.8,9.12,5.91,14,8.22,1.64.78,5.49.21,6-.91a19.57,19.57,0,0,0,1.62-9.94c-.15-1.17-4.19-2.61-6.39-2.51C962.69,139.51,958.12,140.68,953.53,141.47Zm-53.6-38.12c-13.5-1.48-16.09,1.11-15,13.5C895.38,119.68,894,108.45,899.93,103.35ZM840.84,392.63l-.9-2.56-18.18-9.86c3.1,6.49,4.15,12.22,7.3,14.21C831.71,396.09,836.82,393.39,840.84,392.63ZM888.24,120c-.82,1-1.65,2-2.47,3l11.75,11.87C893.46,133.79,899.64,118.6,888.24,120Z" transform="translate(-588 -73.11)"/><path class="cls-1" d="M751.84,273.84c-28.18-20.24-57.71-34.69-92.76-26.18-7.67,1.86-14.86,5.88-22,10.68,31.25-5.78,57.68,2.62,80.63,26-66.13-10-101.44,30.29-127.39,86.2l-2.34-.81c0-6.07.05-12.15,0-18.23-.32-33.78,3.62-66.83,14.12-98.92,3.67-11.23,10.27-18.22,20.83-22.34C673.54,210.56,722.76,226.66,751.84,273.84Z" transform="translate(-588 -73.11)"/><path class="cls-3" d="M782.94,265.24c-25.7-43.32-61.62-73-114.91-72.07,9.62-11.58,39.61-21,58.05-17.75,30,5.37,51.11,24.07,66.35,51.06a8.36,8.36,0,0,1,.93,5.71C790,243.42,786.36,254.54,782.94,265.24Z" transform="translate(-588 -73.11)"/><path class="cls-3" d="M770.7,94.29c-41.93,27.79-34.53,50.36-12.17,84.85-33.88-19.18-67.33-15.71-102.32-4.27C685.57,131.94,721.77,102.72,770.7,94.29Z" transform="translate(-588 -73.11)"/><path class="cls-3" d="M795.45,93.65c-.74,2.42-.74,2.86-1,3-23.79,21-22.87,44.92-1.69,70.62,6.33,7.68,12.37,15.65,19.08,24.15-12.16,8.82-11.69,22.47-13.77,36.78-7.89-12.68-16.85-24.77-23.37-38.19-6.89-14.17-13.35-29.17-16.57-44.6-4.11-19.74,9.13-41.45,27-49.31C788.07,94.86,791.39,94.6,795.45,93.65Z" transform="translate(-588 -73.11)"/><path class="cls-3" d="M862.62,93.28c13.92-4.09,27.68-9.17,41.85-11.73,5.23-1,12.23,2.86,17,6.58,6,4.75,10.24,12.07,16,17.39,4.16,3.87,9.52,6.3,14.34,9.37l1.37-2.16L936.66,96.8c22.07,2.76,53.16,22.81,63,38.74-16-1.36-33-1.1-49.23-4.89-8.85-2.07-18.12-9.45-23.9-17.2C916.47,99.93,906,93.33,889.32,97.63c-8.26,2.13-17.42.37-26.17.37Z" transform="translate(-588 -73.11)"/><path class="cls-3" d="M903.17,146.33c-14.14,12.35-31.49,16.82-50.12,16.28-10.11-.29-12.62-9.18-14.22-17.53-1-5-.17-10.29-.17-15.32,12.25-1.72,23.67-3.43,35.12-4.83a8,8,0,0,1,5.27,1.79C886.89,132.89,894.57,139.29,903.17,146.33Z" transform="translate(-588 -73.11)"/><path class="cls-3" d="M877.71,107.69l-1.93,11.66c-20.26,6.21-39.55,3.53-57.87-6.87-6.41-3.64-11.83-9.34-9-17.94,3.09-9.45,11.17-7.38,17.92-6.19,4.51.78,8.75,3.21,13.12,4.89Z" transform="translate(-588 -73.11)"/><path class="cls-3" d="M812.79,273c-3.15-11.31-6.89-23.12-9.68-35.17-3.11-13.47,1.38-25.59,8.34-36.57.79-1.26,7.48-.74,8.23.76,7.53,15.08,12,31.12,10.48,48.46a9,9,0,0,1-1.9,4.71C822.88,261.64,817.31,267.87,812.79,273Z" transform="translate(-588 -73.11)"/><path class="cls-3" d="M803.74,95.55c.42,22.62,17.28,26.2,30.14,32.78,1.26,10.37,2.45,20.19,3.62,29.83C803.4,148.41,789.88,116.16,803.74,95.55Z" transform="translate(-588 -73.11)"/><path class="cls-3" d="M807.05,325.19c-2.06-29.18,6-58,24.26-62.95.18,4.28.94,8.38.4,12.28-1.46,10.43-4.21,20.71-5.09,31.17C825.49,318.94,817.31,322.69,807.05,325.19Z" transform="translate(-588 -73.11)"/><path class="cls-3" d="M900.23,173.21c-5.45,11.37-15.7,14.37-26.24,15.81-8.6,1.18-14.29-6.1-17-20.1,8.13-1.51,16.57-2,24.29-4.83,7.33-2.65,13.91-7.65,22.6-12.64-1.52,8.48-2.74,15.26-4,22Z" transform="translate(-588 -73.11)"/><path class="cls-3" d="M817.29,156c11.49,4,23.24,6.29,32.9,12.3,4.94,3.07,6.14,12.87,9.13,19.87C830.82,195.53,815,183,817.29,156Z" transform="translate(-588 -73.11)"/><path class="cls-3" d="M989.35,179l-18.93-11.55,14.49-27.2c8.78,1.84,19.8,4.76,25.69,15.07Z" transform="translate(-588 -73.11)"/><path class="cls-3" d="M801.35,320.46c-7.05-26.83-20.64-53.24-4.15-83.48C809.65,265.37,803.87,293,801.35,320.46Z" transform="translate(-588 -73.11)"/><path class="cls-3" d="M814.63,174.2c-27-14.28-40.92-54.22-22.32-63.71-2.37,16.85,5.18,28.25,17.32,37.21C818.93,154.57,812.46,164.45,814.63,174.2Z" transform="translate(-588 -73.11)"/><path class="cls-3" d="M825,201.11c31,22.33,26.45,77.79,4.88,114.55C838,276.43,845.81,239.51,825,201.11Z" transform="translate(-588 -73.11)"/><path class="cls-3" d="M826.79,192.41c31.22,9.24,60.54,4.71,90.13-14.81C889.52,209.9,852.71,216.58,826.79,192.41Z" transform="translate(-588 -73.11)"/><path class="cls-3" d="M926,148.77c3.45-4.57,6.32-8.38,8.39-11.11l32.86,21.6c-9.53,9.31-22.89,5.14-34.47,8.34Z" transform="translate(-588 -73.11)"/><path class="cls-3" d="M819.94,389.6c-10.73-15.94-15.43-32.23-13.42-50.05.86-7.63,5.46-14,13.42-15.84Z" transform="translate(-588 -73.11)"/><path class="cls-3" d="M934.58,257c19.16-14.08,29.6-33.39,31.31-59.43,8.05,9.09,10,17.31,5.66,27.52C964.24,242.49,951.25,252,934.58,257Z" transform="translate(-588 -73.11)"/><path class="cls-3" d="M900,173.49l9.78-25.78c14,.91,15.94,2.31,16.17,12.93a12.49,12.49,0,0,1-.31,4.16c-1.32,4-21.25,10.46-25.36,8.39Z" transform="translate(-588 -73.11)"/><path class="cls-3" d="M911.89,139.38c-9.86-5-15.86-22.62-10.3-32.11,1.53-2.59,5.72-4.14,8.88-4.57,1.14-.15,4.19,4.44,4.08,6.75-.49,10-1.81,20-2.83,30Z" transform="translate(-588 -73.11)"/><path class="cls-3" d="M961.84,173.79l26.08,8.7c-3.62,8.07-6.66,14.85-9.81,21.89L961,177.28C961.25,176.11,961.55,175,961.84,173.79Z" transform="translate(-588 -73.11)"/><path class="cls-3" d="M953.53,141.47c4.59-.79,9.16-2,13.77-2.19,2.2-.1,6.24,1.34,6.39,2.51a19.57,19.57,0,0,1-1.62,9.94c-.5,1.12-4.35,1.69-6,.91-4.84-2.31-9.33-5.42-14-8.22Z" transform="translate(-588 -73.11)"/><path class="cls-3" d="M911.72,139.48l12.5-18.38c2.22,3.65,10,7.94,3.66,16.13-4,5.23-9.76,8.83-16,2.13Z" transform="translate(-588 -73.11)"/><path class="cls-3" d="M899.93,103.35c-5.9,5.1-4.55,16.33-15,13.5C883.84,104.46,886.43,101.87,899.93,103.35Z" transform="translate(-588 -73.11)"/><path class="cls-3" d="M840.84,392.63c-4,.76-9.13,3.46-11.78,1.79-3.15-2-4.2-7.72-7.3-14.21l18.18,9.86Z" transform="translate(-588 -73.11)"/><path class="cls-3" d="M888.24,120c11.4-1.35,5.22,13.84,9.28,14.85l-11.75-11.87C886.59,121.94,887.42,121,888.24,120Z" transform="translate(-588 -73.11)"/></g><g id="OBJECTS"><text class="cls-4" transform="translate(188.94 174.2) scale(0.94 1)"><tspan xml:space="preserve">               </tspan><tspan class="cls-5" x="394.06" y="0">DeVIN</tspan><tspan class="cls-6" x="589.52" y="0">F</tspan><tspan class="cls-7" x="624.93" y="0">O</tspan></text><text class="cls-8" transform="translate(386.48 227.17) scale(0.88 1)">B<tspan class="cls-9" x="23.48" y="0">l</tspan><tspan class="cls-10" x="44.48" y="0">og orien</tspan><tspan class="cls-11" x="213.06" y="0">t</tspan><tspan class="cls-10" x="233.2" y="0">ado a </tspan><tspan class="cls-12" x="354.81" y="0">l</tspan><tspan class="cls-10" x="376.12" y="0">a progra m</tspan><tspan class="cls-13" x="595.52" y="0">a</tspan><tspan x="618.8" y="0">ciÓn</tspan></text></g></svg>